<svg xmlns="http://www.w3.org/2000/svg" viewBox="0 0 64 64" fill="none">
  <defs>
    <radialGradient id="rim" cx="0" cy="0" r="1" gradientUnits="userSpaceOnUse" gradientTransform="translate(32 32) rotate(90) scale(28)">
      <stop stop-color="#FFD700" />
      <stop offset="1" stop-color="#B8860B" />
    </radialGradient>
    <clipPath id="wheel">
      <circle cx="32" cy="32" r="22" />
    </clipPath>
  </defs>

  <rect width="64" height="64" rx="12" fill="#0D0228" />
  <circle cx="32" cy="32" r="26" fill="url(#rim)" />
  <g clip-path="url(#wheel)">
    <path d="M32 32 32 10 54 32Z" fill="#E63946" />
    <path d="M32 32 54 32 32 54Z" fill="#FFD700" />
    <path d="M32 32 32 54 10 32Z" fill="#4895EF" />
    <path d="M32 32 10 32 32 10Z" fill="#2DC653" />
    <circle cx="32" cy="32" r="22" stroke="rgba(255,255,255,.65)" stroke-width="1.5" />
  </g>
  <circle cx="32" cy="32" r="7" fill="#1A1A2E" stroke="#FFD700" stroke-width="2" />
  <path d="M32 24.8 33.7 29.3 38.5 29.4 34.6 32.3 36 36.8 32 34 28 36.8 29.4 32.3 25.5 29.4 30.3 29.3Z" fill="#FFD700" />
  <path d="M32 2 36.8 10H27.2L32 2Z" fill="#FF8C00" />
</svg>
